<svg width="20" height="24" viewBox="0 0 20 24" fill="none" xmlns="http://www.w3.org/2000/svg">
<path d="M6.5 9H8V10.5H6.5V9ZM12.5 9H14V10.5H12.5V9ZM17.9961 16.5C18.2695 16.5 18.5273 16.5547 18.7695 16.6641C19.0117 16.7656 19.2227 16.9102 19.4023 17.0977C19.5898 17.2773 19.7344 17.4883 19.8359 17.7305C19.9453 17.9727 20 18.2305 20 18.5039V24H18.5V18.5039C18.5 18.3633 18.4492 18.2461 18.3477 18.1523C18.2539 18.0508 18.1367 18 17.9961 18H2.50391C2.36328 18 2.24219 18.0508 2.14062 18.1523C2.04688 18.2461 2 18.3633 2 18.5039V24H0.5V18.5039C0.5 18.2305 0.550781 17.9727 0.652344 17.7305C0.761719 17.4883 0.90625 17.2773 1.08594 17.0977C1.26562 16.9102 1.47656 16.7656 1.71875 16.6641C1.96875 16.5547 2.23047 16.5 2.50391 16.5H6.5V15H5.50391C5.23047 15 4.96875 14.9492 4.71875 14.8477C4.47656 14.7383 4.26562 14.5938 4.08594 14.4141C3.90625 14.2344 3.76172 14.0234 3.65234 13.7812C3.55078 13.5312 3.5 13.2695 3.5 12.9961V12H2V9H3.5V8.00391C3.5 7.73047 3.55078 7.47266 3.65234 7.23047C3.76172 6.98828 3.90625 6.77734 4.08594 6.59766C4.26562 6.41016 4.47656 6.26563 4.71875 6.16406C4.96875 6.05469 5.23047 6 5.50391 6H9.5V3.55078C9.27344 3.41797 9.08984 3.23438 8.94922 3C8.81641 2.76562 8.75 2.51563 8.75 2.25C8.75 2.03906 8.78906 1.84375 8.86719 1.66406C8.94531 1.48438 9.05078 1.32812 9.18359 1.19531C9.32422 1.05469 9.48438 0.945313 9.66406 0.867188C9.84375 0.789062 10.0391 0.75 10.25 0.75C10.4609 0.75 10.6562 0.789062 10.8359 0.867188C11.0156 0.945313 11.1719 1.05469 11.3047 1.19531C11.4453 1.32812 11.5547 1.48438 11.6328 1.66406C11.7109 1.84375 11.75 2.03906 11.75 2.25C11.75 2.51563 11.6797 2.76562 11.5391 3C11.4062 3.23438 11.2266 3.41797 11 3.55078V6H14.9961C15.2695 6 15.5273 6.05469 15.7695 6.16406C16.0117 6.26563 16.2227 6.41016 16.4023 6.59766C16.5898 6.77734 16.7344 6.98828 16.8359 7.23047C16.9453 7.47266 17 7.73047 17 8.00391V9H18.5V12H17V12.9961C17 13.2695 16.9453 13.5312 16.8359 13.7812C16.7344 14.0234 16.5898 14.2344 16.4023 14.4141C16.2227 14.5938 16.0117 14.7383 15.7695 14.8477C15.5273 14.9492 15.2695 15 14.9961 15H14V16.5H17.9961ZM5 12.9961C5 13.1367 5.04688 13.2578 5.14062 13.3594C5.24219 13.4531 5.36328 13.5 5.50391 13.5H14.9961C15.1367 13.5 15.2539 13.4531 15.3477 13.3594C15.4492 13.2578 15.5 13.1367 15.5 12.9961V8.00391C15.5 7.86328 15.4492 7.74609 15.3477 7.65234C15.2539 7.55078 15.1367 7.5 14.9961 7.5H5.50391C5.36328 7.5 5.24219 7.55078 5.14062 7.65234C5.04688 7.74609 5 7.86328 5 8.00391V12.9961ZM8 16.5H12.5V15H8V16.5Z" fill="#313636"/>
</svg>
